<svg width="32" height="32" viewBox="0 0 32 32" fill="none" xmlns="http://www.w3.org/2000/svg">
<path fill-rule="evenodd" clip-rule="evenodd" d="M6.91689 11.1241C6.52637 10.7336 6.52637 10.1004 6.91689 9.70988L11.3441 5.28266C15.0427 1.58407 21.0393 1.58407 24.7379 5.28265C28.4364 8.98124 28.4364 14.9778 24.7379 18.6764L15.3626 28.0517C12.8146 30.5996 8.68358 30.5997 6.13562 28.0517C3.58767 25.5037 3.58767 21.3727 6.13562 18.8247L14.7296 10.2307C16.2708 8.68958 18.7695 8.68957 20.3106 10.2307C21.8518 11.7719 21.8518 14.2706 20.3106 15.8117L12.4979 23.6245C12.1074 24.015 11.4742 24.015 11.0837 23.6245C10.6932 23.234 10.6932 22.6008 11.0837 22.2103L18.8964 14.3975C19.6565 13.6374 19.6565 12.405 18.8964 11.6449C18.1363 10.8848 16.904 10.8848 16.1438 11.6449L7.54983 20.239C5.78293 22.0059 5.78293 24.8706 7.54983 26.6375C9.31674 28.4044 12.1815 28.4044 13.9484 26.6375L23.3237 17.2622C26.2412 14.3447 26.2412 9.6144 23.3237 6.69687C20.4061 3.77933 15.6759 3.77934 12.7583 6.69687L8.33111 11.1241C7.94058 11.5146 7.30742 11.5146 6.91689 11.1241Z" fill="black"/>
</svg>
