<svg width="32" height="32" viewBox="0 0 32 32" fill="none" xmlns="http://www.w3.org/2000/svg">
<path fill-rule="evenodd" clip-rule="evenodd" d="M29.2545 25.4878C29.7318 25.0104 30 24.363 30 23.6879V10.197C30 9.52187 29.7318 8.87443 29.2545 8.39706C28.7771 7.9197 28.1296 7.65151 27.4545 7.65151H22.3636L19.8182 4.76667H12.1818L9.63636 7.65151H4.54545C3.87036 7.65151 3.22291 7.9197 2.74555 8.39706C2.26818 8.87443 2 9.52187 2 10.197V23.6879C2 24.363 2.26818 25.0104 2.74555 25.4878C3.22291 25.9652 3.87036 26.2333 4.54545 26.2333H27.4545C28.1296 26.2333 28.7771 25.9652 29.2545 25.4878ZM12.3079 16.5607C12.3079 14.5222 13.9604 12.8698 15.9988 12.8698C18.0373 12.8698 19.6897 14.5222 19.6897 16.5607C19.6897 18.5991 18.0373 20.2516 15.9988 20.2516C13.9604 20.2516 12.3079 18.5991 12.3079 16.5607ZM15.9988 10.0698C12.414 10.0698 9.50791 12.9758 9.50791 16.5607C9.50791 20.1455 12.414 23.0516 15.9988 23.0516C19.5836 23.0516 22.4897 20.1455 22.4897 16.5607C22.4897 12.9758 19.5836 10.0698 15.9988 10.0698Z" fill="black"/>
</svg>
