<svg width="32" height="32" viewBox="0 0 32 32" fill="none" xmlns="http://www.w3.org/2000/svg">
<path fill-rule="evenodd" clip-rule="evenodd" d="M5.19106 15.3944C7.91544 12.5106 11.9218 10.6667 16.4208 10.6667C20.9198 10.6667 24.9262 12.5106 27.6506 15.3944C28.2591 16.0386 28.2591 17.0281 27.6506 17.6723C24.9262 20.5561 20.9198 22.4 16.4208 22.4C11.9218 22.4 7.91545 20.5561 5.19106 17.6723C4.58248 17.0281 4.58248 16.0386 5.19106 15.3944ZM3.64031 19.1373C2.25495 17.6709 2.25495 15.3958 3.64031 13.9294C6.76704 10.6197 11.334 8.53333 16.4208 8.53333C21.5076 8.53333 26.0746 10.6197 29.2013 13.9294C30.5867 15.3958 30.5867 17.6709 29.2013 19.1373C26.0746 22.447 21.5076 24.5333 16.4208 24.5333C11.334 24.5333 6.76704 22.447 3.64031 19.1373ZM19.2 16.5333C19.2 18.0061 18.0061 19.2 16.5333 19.2C15.0606 19.2 13.8667 18.0061 13.8667 16.5333C13.8667 15.0606 15.0606 13.8667 16.5333 13.8667C18.0061 13.8667 19.2 15.0606 19.2 16.5333ZM21.3333 16.5333C21.3333 19.1843 19.1843 21.3333 16.5333 21.3333C13.8824 21.3333 11.7333 19.1843 11.7333 16.5333C11.7333 13.8824 13.8824 11.7333 16.5333 11.7333C19.1843 11.7333 21.3333 13.8824 21.3333 16.5333Z" fill="black"/>
</svg>
