<svg width="32" height="32" viewBox="0 0 32 32" fill="none" xmlns="http://www.w3.org/2000/svg">
<path fill-rule="evenodd" clip-rule="evenodd" d="M7.54433 6.13195C7.11541 5.72814 6.44034 5.74849 6.03652 6.17741C5.6327 6.60634 5.65306 7.28141 6.08198 7.68522L8.77801 10.2234C6.82055 11.1441 5.07815 12.4074 3.64031 13.9294C2.25495 15.3958 2.25495 17.6709 3.64031 19.1373C6.76704 22.447 11.334 24.5333 16.4208 24.5333C18.6627 24.5333 20.8036 24.1281 22.7647 23.3915L25.9355 26.3766C26.3644 26.7804 27.0395 26.7601 27.4433 26.3312C27.8471 25.9022 27.8268 25.2272 27.3978 24.8234L24.8664 22.4401C26.4991 21.5667 27.9631 20.4479 29.2013 19.1373C30.5867 17.6709 30.5867 15.3958 29.2013 13.9294C26.0746 10.6197 21.5076 8.53333 16.4208 8.53333C14.5176 8.53333 12.6871 8.82539 10.9777 9.36432L7.54433 6.13195ZM10.4663 11.8129C8.42767 12.6374 6.63044 13.8708 5.19106 15.3944C4.58248 16.0386 4.58248 17.0281 5.19106 17.6723C7.91545 20.5561 11.9218 22.4 16.4208 22.4C18.0232 22.4 19.5631 22.1661 21.0049 21.7346L19.5366 20.3523C17.6382 22.0499 14.7213 21.9872 12.8981 20.164C11.145 18.4109 11.0197 15.6463 12.5223 13.7485L10.4663 11.8129ZM14.0861 15.2208C13.3654 16.2727 13.4723 17.7212 14.4066 18.6556C15.3806 19.6295 16.9131 19.7043 17.9729 18.8801L14.0861 15.2208ZM23.2145 20.8849L12.7973 11.0775C13.9557 10.8094 15.1692 10.6667 16.4208 10.6667C20.9198 10.6667 24.9262 12.5106 27.6506 15.3944C28.2591 16.0386 28.2591 17.0281 27.6506 17.6723C26.4121 18.9832 24.9087 20.0793 23.2145 20.8849Z" fill="black"/>
</svg>
