<svg width="32" height="32" viewBox="0 0 32 32" fill="none" xmlns="http://www.w3.org/2000/svg">
<path d="M7.98693 13.8528C10.0416 13.8528 11.7072 12.1844 11.7072 10.1264C11.7072 8.06837 10.0416 6.4 7.98693 6.4C5.93228 6.4 4.26666 8.06837 4.26666 10.1264C4.26666 12.1844 5.93228 13.8528 7.98693 13.8528Z" stroke="black" stroke-width="1.99999"/>
<line x1="11.7333" y1="10.7333" x2="26.6667" y2="10.7333" stroke="black" stroke-width="2"/>
<path d="M22.9464 24.5195C20.8918 24.5195 19.2262 22.8511 19.2262 20.7931C19.2262 18.735 20.8918 17.0667 22.9464 17.0667C25.0011 17.0667 26.6667 18.735 26.6667 20.7931C26.6667 22.8511 25.0011 24.5195 22.9464 24.5195Z" stroke="black" stroke-width="1.99999"/>
<line y1="-1" x2="14.9333" y2="-1" transform="matrix(-1 0 0 1 19.2 22.4)" stroke="black" stroke-width="2"/>
</svg>
