<svg width="32" height="32" viewBox="0 0 32 32" fill="none" xmlns="http://www.w3.org/2000/svg">
<g clip-path="url(#clip0_12_6922)">
<path fill-rule="evenodd" clip-rule="evenodd" d="M29.9333 3.49549L22.2738 11.22C21.8849 11.6121 21.2518 11.6148 20.8596 11.2259C20.4674 10.8371 20.4648 10.2039 20.8536 9.81172L28.5336 2.06665H19.777V0.0666542H30.9333H31.9333V1.05094C31.9335 1.06144 31.9335 1.07194 31.9333 1.08244V12.3819H29.9333V3.49549Z" fill="#242424"/>
<path fill-rule="evenodd" clip-rule="evenodd" d="M2.0667 28.5045L9.72619 20.78C10.1151 20.3879 10.7482 20.3852 11.1404 20.7741C11.5326 21.1629 11.5352 21.7961 11.1464 22.1883L3.46643 29.9333H12.223V31.9333H1.0667H0.0666952V30.9491C0.0665312 30.9386 0.0665312 30.9281 0.0666952 30.9176L0.0666952 19.6181H2.0667L2.0667 28.5045Z" fill="#242424"/>
</g>
<defs>
<clipPath id="clip0_12_6922">
<rect width="32" height="32" fill="white"/>
</clipPath>
</defs>
</svg>
