<svg width="32" height="32" viewBox="0 0 32 32" fill="none" xmlns="http://www.w3.org/2000/svg">
<path fill-rule="evenodd" clip-rule="evenodd" d="M2 5H11.1887C12.0484 5 12.8935 5.22165 13.6425 5.64355L16 6.97143L18.3575 5.64355C19.1065 5.22165 19.9516 5 20.8113 5H30V26.0286H20.8113C19.9516 26.0286 19.1065 26.2502 18.3575 26.6721L16 28L13.6425 26.6721C12.8935 26.2502 12.0484 26.0286 11.1887 26.0286H2V5ZM13 9H6V11H13V9ZM6 14H13V16H6V14ZM11 19H6V21H11V19ZM19 9H26V11H19V9ZM26 14H19V16H26V14Z" fill="black"/>
</svg>
