<svg width="32" height="32" viewBox="0 0 32 32" fill="none" xmlns="http://www.w3.org/2000/svg">
<g clip-path="url(#clip0_12_6929)">
<path fill-rule="evenodd" clip-rule="evenodd" d="M29.5032 1.80764L21.8437 9.5321V0.645737H19.8437V11.9451C19.8436 11.9556 19.8436 11.9662 19.8437 11.9767V12.9609H20.8437H32V10.9609H23.2435L30.9234 3.21587C31.3123 2.8237 31.3096 2.19054 30.9174 1.80167C30.5253 1.41279 29.8921 1.41547 29.5032 1.80764ZM2.49677 30.8381L10.1563 23.1136V32H12.1563V20.7006C12.1564 20.6901 12.1564 20.6796 12.1563 20.6691V19.6848H11.1563H0V21.6848H8.75653L1.0766 29.4298C0.687724 29.822 0.690398 30.4552 1.08257 30.844C1.47474 31.2329 2.1079 31.2302 2.49677 30.8381Z" fill="#242424"/>
</g>
<defs>
<clipPath id="clip0_12_6929">
<rect width="32" height="32" fill="white"/>
</clipPath>
</defs>
</svg>
