<svg width="32" height="32" viewBox="0 0 32 32" fill="none" xmlns="http://www.w3.org/2000/svg">
<path fill-rule="evenodd" clip-rule="evenodd" d="M16 4.37086C12.0484 4.37086 8.84503 7.57423 8.84503 11.5258H6.84503C6.84503 6.46966 10.9438 2.37086 16 2.37086C21.0561 2.37086 25.1549 6.46966 25.1549 11.5258C25.1549 13.8481 24.6004 15.5695 23.7209 16.9322C22.8553 18.2732 21.7143 19.2011 20.6814 19.9838C20.5449 20.0872 20.4108 20.188 20.2794 20.2869C18.3576 21.7319 17 22.7528 17 25.2259H15C15 21.7208 17.1536 20.1182 19.0153 18.7328C19.1705 18.6173 19.3237 18.5032 19.4735 18.3898C20.4792 17.6277 21.377 16.8756 22.0405 15.8476C22.6901 14.8412 23.1549 13.5045 23.1549 11.5258C23.1549 7.57423 19.9515 4.37086 16 4.37086Z" fill="black"/>
<path fill-rule="evenodd" clip-rule="evenodd" d="M14.8939 30.0983L14.8939 27.8604L16.8939 27.8604L16.8939 30.0983L14.8939 30.0983Z" fill="black"/>
</svg>
