<svg width="32" height="32" viewBox="0 0 32 32" fill="none" xmlns="http://www.w3.org/2000/svg">
<path fill-rule="evenodd" clip-rule="evenodd" d="M14.0049 6.22437C13.3915 5.83087 13.3915 4.93447 14.0049 4.54097L17.6725 2.18819C18.338 1.76123 19.2124 2.23916 19.2124 3.02989V4.72527C19.442 4.77934 19.6705 4.84054 19.8976 4.90889C22.556 5.70929 24.8389 7.43736 26.3308 9.77878C27.8228 12.1202 28.4247 14.9194 28.0271 17.6671C27.6296 20.4148 26.2588 22.9286 24.1644 24.751C23.762 25.1012 23.1519 25.0588 22.8017 24.6564C22.4516 24.254 22.4939 23.6439 22.8964 23.2938C24.6417 21.775 25.784 19.6802 26.1153 17.3905C26.4466 15.1007 25.945 12.768 24.7017 10.8169C23.4585 8.8657 21.556 7.42562 19.3406 6.75862C19.298 6.74577 19.2552 6.73323 19.2124 6.72098V7.73545C19.2124 8.52618 18.338 9.0041 17.6725 8.57715L14.0049 6.22437ZM18.1418 26.0784C18.7552 26.4719 18.7552 27.3683 18.1418 27.7618L14.4741 30.1145C13.8086 30.5415 12.9342 30.0636 12.9342 29.2728V27.5775C12.7046 27.5234 12.4761 27.4622 12.2491 27.3938C9.59066 26.5934 7.30773 24.8654 5.81579 22.524C4.32385 20.1826 3.72191 17.3834 4.11949 14.6356C4.51707 11.8879 5.88782 9.37415 7.98222 7.5517C8.38464 7.20154 8.99473 7.2439 9.34489 7.64631C9.69506 8.04873 9.6527 8.65882 9.25028 9.00899C7.50493 10.5277 6.36264 12.6225 6.03133 14.9123C5.70001 17.202 6.20163 19.5347 7.44491 21.4859C8.68818 23.437 10.5906 24.8771 12.806 25.5441C12.8487 25.557 12.8914 25.5695 12.9342 25.5817V24.5673C12.9342 23.7766 13.8086 23.2986 14.4741 23.7256L18.1418 26.0784Z" fill="black"/>
</svg>
