<svg width="32" height="32" viewBox="0 0 32 32" fill="none" xmlns="http://www.w3.org/2000/svg">
<path fill-rule="evenodd" clip-rule="evenodd" d="M18.5666 2.2281C18.7569 2.3759 18.8921 2.58272 18.9506 2.8157L19.6651 5.6594C19.7005 5.80022 19.7641 5.93246 19.8522 6.0482C19.9402 6.16393 20.0509 6.26077 20.1776 6.3329L21.5956 7.1404C21.8494 7.2849 22.1513 7.3211 22.4325 7.2406L25.2473 6.4349C25.4796 6.36842 25.7275 6.38119 25.9516 6.47117C26.1757 6.56115 26.3631 6.72317 26.4839 6.9314L28.8883 11.075C29.0084 11.2819 29.0559 11.5226 29.0234 11.7592C28.9909 11.9959 28.8802 12.2151 28.7088 12.3824L26.6161 14.4239C26.4085 14.6265 26.2915 14.9036 26.2915 15.1929V16.8071C26.2915 16.9503 26.3202 17.0921 26.3759 17.2241C26.4317 17.3562 26.5133 17.4758 26.6161 17.5761L28.7088 19.6176C28.8802 19.7849 28.9909 20.0041 29.0234 20.2408C29.0559 20.4774 29.0084 20.7181 28.8883 20.925L26.4839 25.0686C26.3631 25.2768 26.1757 25.4388 25.9516 25.5288C25.7275 25.6188 25.4796 25.6316 25.2473 25.5651L22.4445 24.7628C22.3019 24.722 22.1524 24.7108 22.0053 24.7299C21.8582 24.7489 21.7167 24.7979 21.5894 24.8737L20.5266 25.5065C20.3045 25.6387 20.1373 25.8457 20.0555 26.09L18.9923 29.2636C18.8449 29.7034 18.4314 30 17.9654 30H13.0315C12.8043 30 12.5828 29.9289 12.3985 29.7967C12.2142 29.6645 12.0764 29.478 12.0046 29.2636L10.9403 26.0867C10.8591 25.8444 10.694 25.6387 10.4746 25.5063L9.43167 24.8774C9.30419 24.8005 9.16211 24.7506 9.01434 24.7309C8.86657 24.7112 8.7163 24.7221 8.57296 24.7629L5.74881 25.5667C5.51672 25.6327 5.2691 25.6197 5.04531 25.5297C4.82152 25.4396 4.6344 25.2778 4.51372 25.0698L2.11169 20.9303C1.99099 20.7223 1.94363 20.4801 1.97714 20.2423C2.01066 20.0045 2.12312 19.7846 2.29667 19.6176L4.41792 17.5769C4.5223 17.4765 4.6053 17.3562 4.66198 17.2232C4.71866 17.0902 4.74786 16.9472 4.74785 16.8027V15.1973C4.74785 15.0528 4.71863 14.9098 4.66193 14.7768C4.60523 14.6438 4.52221 14.5235 4.41782 14.4231L2.29667 12.3824C2.12313 12.2154 2.01067 11.9956 1.97716 11.7578C1.94364 11.5199 1.991 11.2778 2.11169 11.0698L4.51372 6.9303C4.76202 6.5023 5.2712 6.2974 5.74871 6.4333L8.58562 7.2408C8.72537 7.28057 8.87173 7.29193 9.01599 7.2742C9.16024 7.25646 9.29943 7.21001 9.42524 7.1376L10.823 6.3332C10.9486 6.26094 11.0583 6.1643 11.1456 6.04903C11.2329 5.93376 11.296 5.80221 11.3312 5.6622L12.0463 2.8157C12.1048 2.58272 12.24 2.3759 12.4303 2.2281C12.6205 2.0803 12.855 2.00001 13.0964 2H17.9005C18.1419 2.00001 18.3764 2.0803 18.5666 2.2281ZM11.8667 15.5333C11.8667 13.5266 13.4935 11.9 15.5 11.9C17.5065 11.9 19.1333 13.5266 19.1333 15.5333C19.1333 17.5401 17.5065 19.1667 15.5 19.1667C13.4935 19.1667 11.8667 17.5401 11.8667 15.5333ZM15.5 8.9C11.8368 8.9 8.86666 11.8696 8.86666 15.5333C8.86666 19.1971 11.8368 22.1667 15.5 22.1667C19.1632 22.1667 22.1333 19.1971 22.1333 15.5333C22.1333 11.8696 19.1632 8.9 15.5 8.9Z" fill="black"/>
</svg>
