<svg width="32" height="32" viewBox="0 0 32 32" fill="none" xmlns="http://www.w3.org/2000/svg">
<path fill-rule="evenodd" clip-rule="evenodd" d="M6.54057 5.75987C6.54057 4.6553 7.436 3.75987 8.54057 3.75987H22.5406C23.6451 3.75987 24.5406 4.6553 24.5406 5.75987V20.3546H24.5565V24.0133H27.3276L29.9966 30.0133H0.996552L3.94389 24.0133H6.55123V21.7599H6.54057V5.75987ZM20.5565 21.7599V24.0133H19V25.1125H12V24.0133H10.5512V21.7599H20.5565ZM10.5015 18.773C10.5015 19.4033 10.015 19.9143 9.41487 19.9143C8.81473 19.9143 8.32822 19.4033 8.32822 18.773C8.32822 18.1426 8.81473 17.6316 9.41487 17.6316C10.015 17.6316 10.5015 18.1426 10.5015 18.773ZM21.6663 19.9143C22.2664 19.9143 22.7529 19.4033 22.7529 18.773C22.7529 18.1426 22.2664 17.6316 21.6663 17.6316C21.0661 17.6316 20.5796 18.1426 20.5796 18.773C20.5796 19.4033 21.0661 19.9143 21.6663 19.9143ZM8.63795 6.1439H22.534V13.4418H8.63795V6.1439Z" fill="black"/>
</svg>
