<svg width="33" height="32" viewBox="0 0 33 32" fill="none" xmlns="http://www.w3.org/2000/svg">
<path fill-rule="evenodd" clip-rule="evenodd" d="M18.5 9.5C18.5 10.8807 17.3807 12 16 12C14.6193 12 13.5 10.8807 13.5 9.5C13.5 8.11929 14.6193 7 16 7C17.3807 7 18.5 8.11929 18.5 9.5ZM20.2428 13C21.0282 12.0491 21.5 10.8296 21.5 9.5C21.5 6.46243 19.0376 4 16 4C12.9624 4 10.5 6.46243 10.5 9.5C10.5 10.8296 10.9718 12.0491 11.7572 13H8.89424C7.99501 13 7.20634 13.6001 6.96661 14.4668L4.20066 24.4668C3.8483 25.7407 4.80654 27 6.12828 27H26.7702C28.1223 27 29.0847 25.6863 28.6772 24.3972L25.5161 14.3972C25.2532 13.5654 24.4815 13 23.6091 13H20.2428Z" fill="black"/>
</svg>
